#!OML:ASF F:\VICON\USERDATA\INSTALL\rory3\rory3.ASF
:FULLY-SPECIFIED
:DEGREES
3591
root 8.43629 17.8263 -2.91061 1266.53 210.387 -176.435
lowerback 15.7442 8.49004 4.89761
upperback 2.22509 11.6595 -5.46825
thorax -4.13521 5.71169 -10.6523
lowerneck -18.2976 14.4855 -5.96011
upperneck 44.8577 25.328 1.48893
head 19.3817 9.05051 6.72086
rclavicle 3.46879e-014 -4.3832e-014
rhumerus -31.3947 -7.50392 -77.4838
rradius 47.5781
rwrist -0.146639
rhand -16.1647 6.7399
rfingers 7.12502
rthumb 10.0412 -23.0005
lclavicle 3.46879e-014 -4.3832e-014
lhumerus -41.3899 19.0683 68.9559
lradius 33.6521
lwrist -4.80808
lhand -18.4608 24.9524
lfingers 7.12502
lthumb 7.82556 54.7875
rfemur -10.1559 -1.7691 26.4328
rtibia 31.9834
rfoot -18.8672 -4.1361
rtoes 11.2614
lfemur -30.2318 -3.85031 -26.7525
ltibia 19.116
lfoot 201.171 -200.679
ltoes 13.5539
3592
root 8.51287 17.84 -2.98398 1266.55 210.123 -176.377
lowerback 15.7338 8.45117 4.72449
upperback 2.33138 11.5802 -5.38795
thorax -4.08429 5.67834 -10.4473
lowerneck -18.2432 14.5084 -5.947
upperneck 44.7631 25.3425 1.44739
head 19.3184 9.06974 6.6862
rclavicle 1.83876e-014 4.37326e-015
rhumerus -31.4627 -7.40129 -77.2494
rradius 47.6915
rwrist -0.326484
rhand -16.3203 6.90453
rfingers 7.12502
rthumb 9.89116 -22.8431
lclavicle 1.83876e-014 4.37326e-015
lhumerus -41.6083 18.7295 69.1819
lradius 33.8872
lwrist -4.48461
lhand -18.2318 25.0879
lfingers 7.12502
lthumb 8.04661 54.9148
rfemur -10.4236 -1.77217 26.2689
rtibia 31.7211
rfoot -18.8729 -4.09097
rtoes 11.5478
lfemur -30.5951 -3.97643 -26.5037
ltibia 19.7781
lfoot 197.757 -202.014
ltoes 7.93745
3593
root 8.58653 17.8502 -3.05589 1266.52 209.839 -176.345
lowerback 15.7808 8.41817 4.51712
upperback 2.41735 11.5052 -5.2773
thorax -4.09798 5.64194 -10.2056
lowerneck -18.2079 14.5285 -5.88796
upperneck 44.8252 25.3441 1.48104
head 19.3504 9.08011 6.69783
rclavicle -6.37105e-014 2.62396e-014
rhumerus -31.4735 -7.42978 -76.9837
rradius 47.6504
rwrist -0.0837154
rhand -16.7578 7.68553
rfingers 7.12502
rthumb 9.46908 -22.0817
lclavicle -6.37105e-014 2.62396e-014
lhumerus -41.8996 18.4733 69.3366
lradius 34.0503
lwrist -4.36664
lhand -17.9242 25.6867
lfingers 7.12502
lthumb 8.34353 55.5019
rfemur -10.6429 -1.81494 26.1579
rtibia 31.4707
rfoot -18.801 -4.11431
rtoes 11.9083
lfemur -30.8735 -4.29071 -26.1188
ltibia 20.6931
lfoot 192.915 -204.246
ltoes 0.0154007
3594
root 8.6601 17.8465 -3.12777 1266.46 209.555 -176.431
lowerback 15.952 8.35646 4.43479
upperback 2.51803 11.4147 -5.16394
thorax -4.14005 5.59504 -10.0485
lowerneck -18.2528 14.523 -5.82284
upperneck 44.9177 25.3142 1.52938
head 19.4226 9.07007 6.72435
rclavicle 9.7156e-014 -1.27222e-014
rhumerus -31.431 -7.44687 -76.7843
rradius 47.595
rwrist 0.265397
rhand -17.4981 8.93553
rfingers 7.12502
rthumb 8.75473 -20.8629
lclavicle 9.7156e-014 -1.27222e-014
lhumerus -42.1176 18.4053 69.3566
lradius 34.1989
lwrist -4.60703
lhand -18.0101 25.6581
lfingers 7.12502
lthumb 8.26062 55.4766
rfemur -10.7677 -1.83741 26.2074
rtibia 31.204
rfoot -18.6917 -4.50419
rtoes 10.8446
lfemur -31.0582 -4.93243 -25.4392
ltibia 21.8458
lfoot 188.75 -204.861
ltoes -5.32971
3595
root 8.73429 17.8494 -3.1989 1266.42 209.173 -176.425
lowerback 16.0638 8.27368 4.36527
upperback 2.60696 11.2949 -5.12278
thorax -4.14983 5.5364 -9.96188
lowerneck -18.2017 14.4605 -5.74577
upperneck 44.8888 25.1661 1.53346
head 19.4115 9.03037 6.684
rclavicle 2.05742e-014 -1.23246e-014
rhumerus -31.4398 -7.40064 -76.6661
rradius 47.6032
rwrist 0.220349
rhand -17.3676 8.77517
rfingers 7.12502
rthumb 8.88061 -21.0179
lclavicle 2.05742e-014 -1.23246e-014
lhumerus -42.2614 18.1911 69.3689
lradius 34.496
lwrist -5.00545
lhand -18.4371 24.8629
lfingers 7.12502
lthumb 7.84844 54.6973
rfemur -10.9654 -1.85017 26.1796
rtibia 30.9752
rfoot -18.6809 -4.9195
rtoes 10.4676
lfemur -31.3027 -5.71826 -24.8084
ltibia 23.1314
lfoot 185.327 -203.843
ltoes -7.70032
3596
root 8.80631 17.8679 -3.26963 1266.44 208.781 -176.43
lowerback 16.0783 8.21014 4.24082
upperback 2.64662 11.1929 -5.04359
thorax -4.17578 5.48485 -9.7944
lowerneck -17.976 14.3763 -5.73677
upperneck 44.7946 24.9861 1.50096
head 19.312 8.98445 6.59886
rclavicle -1.14102e-013 1.70955e-014
rhumerus -31.5818 -7.3261 -76.528
rradius 47.6212
rwrist 0.0540356
rhand -17.0365 7.37654
rfingers 7.12502
rthumb 9.20013 -22.4028
lclavicle -1.14102e-013 1.70955e-014
lhumerus -42.5431 17.969 69.3294
lradius 34.8009
lwrist -5.30201
lhand -18.6686 23.9825
lfingers 7.12502
lthumb 7.62503 53.8251
rfemur -11.2476 -1.83945 26.1362
rtibia 30.8172
rfoot -18.7045 -5.14325
rtoes 11.0255
lfemur -31.616 -6.37933 -24.2468
ltibia 24.5081
lfoot 181.32 -202.09
ltoes -11.9112
3597
root 8.87485 17.8849 -3.33955 1266.46 208.384 -176.4
lowerback 16.0966 8.13983 4.02186
upperback 2.65292 11.0672 -4.93783
thorax -4.26719 5.41719 -9.54913
lowerneck -17.8233 14.3401 -5.7844
upperneck 44.7763 24.9305 1.47885
head 19.2614 8.96638 6.56351
rclavicle 2.94201e-014 -1.78906e-015
rhumerus -31.6841 -7.36175 -76.3793
rradius 47.3413
rwrist -0.0743231
rhand -17.0527 7.42804
rfingers 7.12502
rthumb 9.18448 -22.3519
lclavicle 2.94201e-014 -1.78906e-015
lhumerus -42.939 17.8036 69.2219
lradius 35.0262
lwrist -5.39091
lhand -18.1639 23.6312
lfingers 7.12502
lthumb 8.11212 53.4555
rfemur -11.5545 -1.9079 26.069
rtibia 30.711
rfoot -18.5876 -5.46195
rtoes 10.6236
lfemur -31.8864 -7.01923 -23.7095
ltibia 25.9423
lfoot 177.279 -200.173
ltoes -18.7882
3598
root 8.94431 17.8875 -3.40686 1266.45 207.91 -176.36
lowerback 16.1338 8.03842 3.87842
upperback 2.65158 10.9119 -4.87571
thorax -4.35717 5.33503 -9.39132
lowerneck -17.729 14.3291 -5.73159
upperneck 44.7775 24.9152 1.41601
head 19.2656 8.96314 6.5193
rclavicle 1.26029e-013 -4.59193e-014
rhumerus -31.8009 -7.66502 -76.1867
rradius 46.9511
rwrist 0.179186
rhand -16.7458 8.59769
rfingers 7.12502
rthumb 9.48063 -21.169
lclavicle 1.26029e-013 -4.59193e-014
lhumerus -43.2025 17.6054 69.059
lradius 35.0778
lwrist -5.43816
lhand -17.6677 23.9817
lfingers 7.12502
lthumb 8.591 53.7869
rfemur -11.815 -1.97829 26.0056
rtibia 30.5605
rfoot -18.5977 -5.61181
rtoes 13.1345
lfemur -32.069 -8.05496 -23.0108
ltibia 27.4838
lfoot 174.967 -198.051
ltoes -21.5846
3599
root 9.01163 17.8985 -3.47349 1266.45 207.428 -176.41
lowerback 16.1825 7.93864 3.88432
upperback 2.6919 10.782 -4.864
thorax -4.36444 5.27073 -9.36803
lowerneck -17.6901 14.2766 -5.6062
upperneck 44.781 24.7749 1.43247
head 19.283 8.92929 6.48603
rclavicle 1.75924e-014 -1.72943e-014
rhumerus -31.9354 -8.13856 -76.0597
rradius 46.7669
rwrist 0.616294
rhand -16.3391 9.36181
rfingers 7.12502
rthumb 9.873 -20.3867
lclavicle 1.75924e-014 -1.72943e-014
lhumerus -43.2527 17.4409 68.8277
lradius 35.0911
lwrist -5.56757
lhand -17.6629 24.7227
lfingers 7.12502
lthumb 8.59566 54.5277
rfemur -12.1126 -1.94142 26.0841
rtibia 30.3827
rfoot -18.5399 -6.05872
rtoes 16.3476
lfemur -32.1958 -8.98405 -22.2791
ltibia 29.0905
lfoot 174.483 -195.89
ltoes -19.7587
3600
root 9.07614 17.9129 -3.54063 1266.43 207.052 -176.493
lowerback 16.2829 7.8613 3.83486
upperback 2.74988 10.6727 -4.8283
thorax -4.39173 5.21574 -9.29893
lowerneck -17.7233 14.1948 -5.57263
upperneck 44.8327 24.6069 1.51667
head 19.3176 8.872 6.49959
rclavicle -7.65321e-015 -7.15625e-015
rhumerus -32.005 -8.47415 -76.0784
rradius 46.6894
rwrist 0.684693
rhand -16.3685 9.17582
rfingers 7.12502
rthumb 9.84465 -20.574
lclavicle -7.65321e-015 -7.15625e-015
lhumerus -43.3391 17.4654 68.5112
lradius 35.1584
lwrist -5.6884
lhand -17.484 25.5566
lfingers 7.12502
lthumb 8.76828 55.3545
rfemur -12.29 -1.82214 26.1514
rtibia 30.2092
rfoot -18.3708 -6.64676
rtoes 16.3822
lfemur -32.4089 -9.33118 -21.818
ltibia 30.7051
lfoot 173.663 -193.583
ltoes -20.6734
3601
root 9.14104 17.923 -3.6028 1266.4 206.722 -176.486
lowerback 16.3163 7.78959 3.73425
upperback 2.81419 10.5611 -4.8041
thorax -4.38362 5.16248 -9.2011
lowerneck -17.746 14.164 -5.65981
upperneck 44.8424 24.579 1.54822
head 19.3079 8.85149 6.52047
rclavicle -2.5842e-014 2.78299e-015
rhumerus -32.1275 -8.96159 -76.0093
rradius 46.6441
rwrist 1.10383
rhand -16.6845 8.5692
rfingers 7.12502
rthumb 9.53981 -21.1948
lclavicle -2.5842e-014 2.78299e-015
lhumerus -43.3833 17.5719 68.2002
lradius 35.1388
lwrist -5.70918
lhand -17.3149 25.8665
lfingers 7.12502
lthumb 8.93144 55.6575
rfemur -12.4416 -1.84431 26.0854
rtibia 30.0273
rfoot -18.1179 -7.00313
rtoes 14.3059
lfemur -32.5615 -9.92762 -21.2746
ltibia 32.2796
lfoot 173.36 -191.324
ltoes -17.5556
3602
root 9.20533 17.923 -3.66384 1266.34 206.339 -176.369
lowerback 16.2798 7.68471 3.57107
upperback 2.89612 10.393 -4.80846
thorax -4.33431 5.08484 -9.07738
lowerneck -17.8424 14.171 -5.81613
upperneck 44.9346 24.6151 1.68128
head 19.3271 8.84879 6.61879
rclavicle -6.24184e-014 1.66979e-014
rhumerus -32.2699 -9.49305 -75.8701
rradius 46.6199
rwrist 1.81784
rhand -16.5242 8.10591
rfingers 7.12502
rthumb 9.69443 -21.651
lclavicle -6.24184e-014 1.66979e-014
lhumerus -43.3762 17.7823 67.8142
lradius 35.0675
lwrist -5.79689
lhand -17.5584 25.916
lfingers 7.12502
lthumb 8.69646 55.7169
rfemur -12.5946 -1.91504 25.9244
rtibia 29.8109
rfoot -17.6318 -6.85081
rtoes 16.3253
lfemur -32.6291 -10.3777 -20.9122
ltibia 33.8378
lfoot 172.689 -189.512
ltoes -19.5899
3603
root 9.26803 17.9264 -3.72646 1266.29 205.96 -176.237
lowerback 16.2967 7.61305 3.37418
upperback 2.91574 10.2618 -4.8467
thorax -4.37263 5.01963 -8.99345
lowerneck -17.8734 14.11 -5.93
upperneck 44.9441 24.4868 1.8388
head 19.2855 8.80699 6.67671
rclavicle 4.58696e-014 -2.5842e-015
rhumerus -32.543 -9.9193 -75.8096
rradius 46.6428
rwrist 2.17419
rhand -16.0723 7.81211
rfingers 7.12502
rthumb 10.1304 -21.924
lclavicle 4.58696e-014 -2.5842e-015
lhumerus -43.3953 17.9111 67.3538
lradius 35.0127
lwrist -5.92004
lhand -17.6614 26.3425
lfingers 7.12502
lthumb 8.59715 56.1475
rfemur -12.8416 -1.94901 25.7552
rtibia 29.6997
rfoot -17.0016 -6.70271
rtoes 19.0181
lfemur -32.6464 -10.7728 -20.5389
ltibia 35.3166
lfoot 172.646 -188.171
ltoes -21.3438
3604
root 9.331 17.94 -3.78703 1266.32 205.623 -176.304
lowerback 16.375 7.54053 3.38203
upperback 2.85334 10.1673 -4.85954
thorax -4.49366 4.96483 -9.01837
lowerneck -17.6303 14.0647 -5.8447
upperneck 44.8057 24.3563 1.76
head 19.1757 8.78764 6.56565
rclavicle 8.49307e-014 -2.06736e-014
rhumerus -32.9655 -10.1757 -75.9012
rradius 46.6462
rwrist 1.8993
rhand -16.2967 7.76741
rfingers 7.12502
rthumb 9.91394 -21.9791
lclavicle 8.49307e-014 -2.06736e-014
lhumerus -43.4619 18.0216 66.8327
lradius 34.8621
lwrist -5.97717
lhand -17.5904 26.4828
lfingers 7.12502
lthumb 8.66565 56.285
rfemur -13.1274 -1.92265 25.7622
rtibia 29.6868
rfoot -16.9869 -7.39777
rtoes 16.2655
lfemur -32.5626 -11.1855 -19.9405
ltibia 36.7106
lfoot 173.249 -186.956
ltoes -17.0302
3605
root 9.39399 17.9374 -3.84554 1266.34 205.223 -176.326
lowerback 16.3126 7.44329 3.35846
upperback 2.87249 10.0363 -4.84481
thorax -4.46904 4.90197 -8.95731
lowerneck -17.4583 14.0386 -5.77155
upperneck 44.7521 24.3078 1.64929
head 19.1419 8.7768 6.47738
rclavicle 5.84427e-014 -3.00165e-014
rhumerus -33.2883 -10.3228 -76.0243
rradius 46.5405
rwrist 1.04263
rhand -17.05 8.1851
rfingers 7.12502
rthumb 9.18706 -21.5948
lclavicle 5.84427e-014 -3.00165e-014
lhumerus -43.469 18.3917 66.3142
lradius 34.6761
lwrist -6.1269
lhand -17.7922 25.7083
lfingers 7.12502
lthumb 8.47084 55.5184
rfemur -13.4596 -1.85727 25.7231
rtibia 29.7808
rfoot -17.3637 -8.4836
rtoes 12.8763
lfemur -32.3694 -11.4624 -19.5176
ltibia 37.9814
lfoot 173.306 -185.483
ltoes -14.7947
